<svg id="eXbhmAloDuL1" xmlns="http://www.w3.org/2000/svg" xmlns:xlink="http://www.w3.org/1999/xlink" viewBox="0 0 300 300" shape-rendering="geometricPrecision" text-rendering="geometricPrecision" project-id="c34a0e2ae644478ca443d42229a4361f" export-id="cf3368dcb0cb42cd8cd72b6e81e22e00" cached="false"><ellipse rx="6.695279" ry="6.95279" transform="translate(28.197425 28.948498)" fill="#434248" stroke-width="0"/><ellipse rx="6.695279" ry="6.95279" transform="translate(28.197425 241.948498)" fill="#434248" stroke-width="0"/><ellipse rx="6.695279" ry="6.95279" transform="translate(28.197425 223.948498)" fill="#434248" stroke-width="0"/><ellipse rx="6.695279" ry="6.95279" transform="translate(28.197425 259.948498)" fill="#434248" stroke-width="0"/><ellipse rx="6.695279" ry="6.95279" transform="translate(28.197425 276.948498)" fill="#434248" stroke-width="0"/><ellipse rx="6.695279" ry="6.95279" transform="translate(28.197425 306.948498)" fill="#434248" stroke-width="0"/><ellipse rx="6.695279" ry="6.95279" transform="translate(28.197425 323.948498)" fill="#434248" stroke-width="0"/><ellipse rx="6.695279" ry="6.95279" transform="translate(28.197425 341.948498)" fill="#434248" stroke-width="0"/><ellipse rx="6.695279" ry="6.95279" transform="translate(28.197425 359.948498)" fill="#434248" stroke-width="0"/><ellipse rx="6.695279" ry="6.95279" transform="translate(28.197425 376.948498)" fill="#434248" stroke-width="0"/><ellipse rx="6.695279" ry="6.95279" transform="translate(28.197425 394.948498)" fill="#434248" stroke-width="0"/><ellipse rx="6.695279" ry="6.95279" transform="translate(28.197425 412.948498)" fill="#434248" stroke-width="0"/><ellipse rx="6.695279" ry="6.95279" transform="translate(28.197425 431.948498)" fill="#434248" stroke-width="0"/><ellipse rx="6.695279" ry="6.95279" transform="translate(28.197425 10.948498)" fill="#434248" stroke-width="0"/><ellipse rx="6.695279" ry="6.95279" transform="translate(28.197425 46.948498)" fill="#434248" stroke-width="0"/><ellipse rx="6.695279" ry="6.95279" transform="translate(28.197425 63.948498)" fill="#434248" stroke-width="0"/><ellipse rx="6.695279" ry="6.95279" transform="translate(28.197425 80.948498)" fill="#434248" stroke-width="0"/><ellipse rx="6.695279" ry="6.95279" transform="translate(28.197425 97.948498)" fill="#434248" stroke-width="0"/><ellipse rx="6.695279" ry="6.95279" transform="translate(28.197425 115.948498)" fill="#434248" stroke-width="0"/><ellipse rx="6.695279" ry="6.95279" transform="translate(28.197425 133.948498)" fill="#434248" stroke-width="0"/><ellipse rx="6.695279" ry="6.95279" transform="translate(28.197425 150.948498)" fill="#434248" stroke-width="0"/><ellipse rx="6.695279" ry="6.95279" transform="translate(28.197425 168.948498)" fill="#434248" stroke-width="0"/><ellipse rx="6.695279" ry="6.95279" transform="translate(28.197425 186.948498)" fill="#434248" stroke-width="0"/><ellipse rx="6.695279" ry="6.95279" transform="translate(28.197425 205.948498)" fill="#434248" stroke-width="0"/><ellipse rx="6.695279" ry="6.95279" transform="translate(48.197425 40.948498)" fill="#434248" stroke-width="0"/><ellipse rx="6.695279" ry="6.95279" transform="translate(124.197425 40.948498)" fill="#434248" stroke-width="0"/><ellipse rx="6.695279" ry="6.95279" transform="translate(200.197425 40.948498)" fill="#434248" stroke-width="0"/><ellipse rx="6.695279" ry="6.95279" transform="translate(239.197425 40.948498)" fill="#434248" stroke-width="0"/><ellipse rx="6.695279" ry="6.95279" transform="translate(239.197425 253.948498)" fill="#434248" stroke-width="0"/><ellipse rx="6.695279" ry="6.95279" transform="translate(239.197425 235.948498)" fill="#434248" stroke-width="0"/><ellipse rx="6.695279" ry="6.95279" transform="translate(239.197425 271.948498)" fill="#434248" stroke-width="0"/><ellipse rx="6.695279" ry="6.95279" transform="translate(239.197425 288.948498)" fill="#434248" stroke-width="0"/><ellipse rx="6.695279" ry="6.95279" transform="translate(239.197425 22.948498)" fill="#434248" stroke-width="0"/><ellipse rx="6.695279" ry="6.95279" transform="translate(239.197425 58.948498)" fill="#434248" stroke-width="0"/><ellipse rx="6.695279" ry="6.95279" transform="translate(239.197425 75.948498)" fill="#434248" stroke-width="0"/><ellipse rx="6.695279" ry="6.95279" transform="translate(239.197425 92.948498)" fill="#434248" stroke-width="0"/><ellipse rx="6.695279" ry="6.95279" transform="translate(239.197425 109.948498)" fill="#434248" stroke-width="0"/><ellipse rx="6.695279" ry="6.95279" transform="translate(239.197425 127.948498)" fill="#434248" stroke-width="0"/><ellipse rx="6.695279" ry="6.95279" transform="translate(239.197425 145.948498)" fill="#434248" stroke-width="0"/><ellipse rx="6.695279" ry="6.95279" transform="translate(239.197425 162.948498)" fill="#434248" stroke-width="0"/><ellipse rx="6.695279" ry="6.95279" transform="translate(239.197425 180.948498)" fill="#434248" stroke-width="0"/><ellipse rx="6.695279" ry="6.95279" transform="translate(239.197425 198.948498)" fill="#434248" stroke-width="0"/><ellipse rx="6.695279" ry="6.95279" transform="translate(239.197425 217.948498)" fill="#434248" stroke-width="0"/><ellipse rx="6.695279" ry="6.95279" transform="translate(258.197425 28.948498)" fill="#434248" stroke-width="0"/><ellipse rx="6.695279" ry="6.95279" transform="translate(258.197425 241.948498)" fill="#434248" stroke-width="0"/><ellipse rx="6.695279" ry="6.95279" transform="translate(258.197425 223.948498)" fill="#434248" stroke-width="0"/><ellipse rx="6.695279" ry="6.95279" transform="translate(258.197425 259.948498)" fill="#434248" stroke-width="0"/><ellipse rx="6.695279" ry="6.95279" transform="translate(258.197425 276.948498)" fill="#434248" stroke-width="0"/><ellipse rx="6.695279" ry="6.95279" transform="translate(258.197425 10.948498)" fill="#434248" stroke-width="0"/><ellipse rx="6.695279" ry="6.95279" transform="translate(258.197425 46.948498)" fill="#434248" stroke-width="0"/><ellipse rx="6.695279" ry="6.95279" transform="translate(258.197425 63.948498)" fill="#434248" stroke-width="0"/><ellipse rx="6.695279" ry="6.95279" transform="translate(258.197425 80.948498)" fill="#434248" stroke-width="0"/><ellipse rx="6.695279" ry="6.95279" transform="translate(258.197425 97.948498)" fill="#434248" stroke-width="0"/><ellipse rx="6.695279" ry="6.95279" transform="translate(258.197425 115.948498)" fill="#434248" stroke-width="0"/><ellipse rx="6.695279" ry="6.95279" transform="translate(258.197425 133.948498)" fill="#434248" stroke-width="0"/><ellipse rx="6.695279" ry="6.95279" transform="translate(258.197425 150.948498)" fill="#434248" stroke-width="0"/><ellipse rx="6.695279" ry="6.95279" transform="translate(258.197425 168.948498)" fill="#434248" stroke-width="0"/><ellipse rx="6.695279" ry="6.95279" transform="translate(258.197425 186.948498)" fill="#434248" stroke-width="0"/><ellipse rx="6.695279" ry="6.95279" transform="translate(258.197425 205.948498)" fill="#434248" stroke-width="0"/><ellipse rx="6.695279" ry="6.95279" transform="translate(200.197425 253.948498)" fill="#434248" stroke-width="0"/><ellipse rx="6.695279" ry="6.95279" transform="translate(200.197425 235.948498)" fill="#434248" stroke-width="0"/><ellipse rx="6.695279" ry="6.95279" transform="translate(200.197425 271.948498)" fill="#434248" stroke-width="0"/><ellipse rx="6.695279" ry="6.95279" transform="translate(200.197425 288.948498)" fill="#434248" stroke-width="0"/><ellipse rx="6.695279" ry="6.95279" transform="translate(200.197425 22.948498)" fill="#434248" stroke-width="0"/><ellipse rx="6.695279" ry="6.95279" transform="translate(200.197425 58.948498)" fill="#434248" stroke-width="0"/><ellipse rx="6.695279" ry="6.95279" transform="translate(200.197425 75.948498)" fill="#434248" stroke-width="0"/><ellipse rx="6.695279" ry="6.95279" transform="translate(200.197425 92.948498)" fill="#434248" stroke-width="0"/><ellipse rx="6.695279" ry="6.95279" transform="translate(200.197425 109.948498)" fill="#434248" stroke-width="0"/><ellipse rx="6.695279" ry="6.95279" transform="translate(200.197425 127.948498)" fill="#434248" stroke-width="0"/><ellipse rx="6.695279" ry="6.95279" transform="translate(200.197425 145.948498)" fill="#434248" stroke-width="0"/><ellipse rx="6.695279" ry="6.95279" transform="translate(200.197425 162.948498)" fill="#434248" stroke-width="0"/><ellipse rx="6.695279" ry="6.95279" transform="translate(200.197425 180.948498)" fill="#434248" stroke-width="0"/><ellipse rx="6.695279" ry="6.95279" transform="translate(200.197425 198.948498)" fill="#434248" stroke-width="0"/><ellipse rx="6.695279" ry="6.95279" transform="translate(200.197425 217.948498)" fill="#434248" stroke-width="0"/><ellipse rx="6.695279" ry="6.95279" transform="translate(219.197425 28.948498)" fill="#434248" stroke-width="0"/><ellipse rx="6.695279" ry="6.95279" transform="translate(219.197425 241.948498)" fill="#434248" stroke-width="0"/><ellipse rx="6.695279" ry="6.95279" transform="translate(219.197425 223.948498)" fill="#434248" stroke-width="0"/><ellipse rx="6.695279" ry="6.95279" transform="translate(219.197425 259.948498)" fill="#434248" stroke-width="0"/><ellipse rx="6.695279" ry="6.95279" transform="translate(219.197425 276.948498)" fill="#434248" stroke-width="0"/><ellipse rx="6.695279" ry="6.95279" transform="translate(219.197425 10.948498)" fill="#434248" stroke-width="0"/><ellipse rx="6.695279" ry="6.95279" transform="translate(219.197425 46.948498)" fill="#434248" stroke-width="0"/><ellipse rx="6.695279" ry="6.95279" transform="translate(219.197425 63.948498)" fill="#434248" stroke-width="0"/><ellipse rx="6.695279" ry="6.95279" transform="translate(219.197425 80.948498)" fill="#434248" stroke-width="0"/><ellipse rx="6.695279" ry="6.95279" transform="translate(219.197425 97.948498)" fill="#434248" stroke-width="0"/><ellipse rx="6.695279" ry="6.95279" transform="translate(219.197425 115.948498)" fill="#434248" stroke-width="0"/><ellipse rx="6.695279" ry="6.95279" transform="translate(219.197425 133.948498)" fill="#434248" stroke-width="0"/><ellipse rx="6.695279" ry="6.95279" transform="translate(219.197425 150.948498)" fill="#434248" stroke-width="0"/><ellipse rx="6.695279" ry="6.95279" transform="translate(219.197425 168.948498)" fill="#434248" stroke-width="0"/><ellipse rx="6.695279" ry="6.95279" transform="translate(219.197425 186.948498)" fill="#434248" stroke-width="0"/><ellipse rx="6.695279" ry="6.95279" transform="translate(219.197425 205.948498)" fill="#434248" stroke-width="0"/><ellipse rx="6.695279" ry="6.95279" transform="translate(163.197425 40.948498)" fill="#434248" stroke-width="0"/><ellipse rx="6.695279" ry="6.95279" transform="translate(163.197425 253.948498)" fill="#434248" stroke-width="0"/><ellipse rx="6.695279" ry="6.95279" transform="translate(163.197425 235.948498)" fill="#434248" stroke-width="0"/><ellipse rx="6.695279" ry="6.95279" transform="translate(163.197425 271.948498)" fill="#434248" stroke-width="0"/><ellipse rx="6.695279" ry="6.95279" transform="translate(163.197425 288.948498)" fill="#434248" stroke-width="0"/><ellipse rx="6.695279" ry="6.95279" transform="translate(163.197425 22.948498)" fill="#434248" stroke-width="0"/><ellipse rx="6.695279" ry="6.95279" transform="translate(163.197425 58.948498)" fill="#434248" stroke-width="0"/><ellipse rx="6.695279" ry="6.95279" transform="translate(163.197425 75.948498)" fill="#434248" stroke-width="0"/><ellipse rx="6.695279" ry="6.95279" transform="translate(163.197425 92.948498)" fill="#434248" stroke-width="0"/><ellipse rx="6.695279" ry="6.95279" transform="translate(163.197425 109.948498)" fill="#434248" stroke-width="0"/><ellipse rx="6.695279" ry="6.95279" transform="translate(163.197425 127.948498)" fill="#434248" stroke-width="0"/><ellipse rx="6.695279" ry="6.95279" transform="translate(163.197425 145.948498)" fill="#434248" stroke-width="0"/><ellipse rx="6.695279" ry="6.95279" transform="translate(163.197425 162.948498)" fill="#434248" stroke-width="0"/><ellipse rx="6.695279" ry="6.95279" transform="translate(163.197425 180.948498)" fill="#434248" stroke-width="0"/><ellipse rx="6.695279" ry="6.95279" transform="translate(163.197425 198.948498)" fill="#434248" stroke-width="0"/><ellipse rx="6.695279" ry="6.95279" transform="translate(163.197425 217.948498)" fill="#434248" stroke-width="0"/><ellipse rx="6.695279" ry="6.95279" transform="translate(182.197425 28.948498)" fill="#434248" stroke-width="0"/><ellipse rx="6.695279" ry="6.95279" transform="translate(182.197425 241.948498)" fill="#434248" stroke-width="0"/><ellipse rx="6.695279" ry="6.95279" transform="translate(182.197425 223.948498)" fill="#434248" stroke-width="0"/><ellipse rx="6.695279" ry="6.95279" transform="translate(182.197425 259.948498)" fill="#434248" stroke-width="0"/><ellipse rx="6.695279" ry="6.95279" transform="translate(182.197425 276.948498)" fill="#434248" stroke-width="0"/><ellipse rx="6.695279" ry="6.95279" transform="translate(182.197425 10.948498)" fill="#434248" stroke-width="0"/><ellipse rx="6.695279" ry="6.95279" transform="translate(182.197425 46.948498)" fill="#434248" stroke-width="0"/><ellipse rx="6.695279" ry="6.95279" transform="translate(182.197425 63.948498)" fill="#434248" stroke-width="0"/><ellipse rx="6.695279" ry="6.95279" transform="translate(182.197425 80.948498)" fill="#434248" stroke-width="0"/><ellipse rx="6.695279" ry="6.95279" transform="translate(182.197425 97.948498)" fill="#434248" stroke-width="0"/><ellipse rx="6.695279" ry="6.95279" transform="translate(182.197425 115.948498)" fill="#434248" stroke-width="0"/><ellipse rx="6.695279" ry="6.95279" transform="translate(182.197425 133.948498)" fill="#434248" stroke-width="0"/><ellipse rx="6.695279" ry="6.95279" transform="translate(182.197425 150.948498)" fill="#434248" stroke-width="0"/><ellipse rx="6.695279" ry="6.95279" transform="translate(182.197425 168.948498)" fill="#434248" stroke-width="0"/><ellipse rx="6.695279" ry="6.95279" transform="translate(182.197425 186.948498)" fill="#434248" stroke-width="0"/><ellipse rx="6.695279" ry="6.95279" transform="translate(182.197425 205.948498)" fill="#434248" stroke-width="0"/><ellipse rx="6.695279" ry="6.95279" transform="translate(124.197425 253.948498)" fill="#434248" stroke-width="0"/><ellipse rx="6.695279" ry="6.95279" transform="translate(124.197425 235.948498)" fill="#434248" stroke-width="0"/><ellipse rx="6.695279" ry="6.95279" transform="translate(124.197425 271.948498)" fill="#434248" stroke-width="0"/><ellipse rx="6.695279" ry="6.95279" transform="translate(124.197425 288.948498)" fill="#434248" stroke-width="0"/><ellipse rx="6.695279" ry="6.95279" transform="translate(124.197425 22.948498)" fill="#434248" stroke-width="0"/><ellipse rx="6.695279" ry="6.95279" transform="translate(124.197425 58.948498)" fill="#434248" stroke-width="0"/><ellipse rx="6.695279" ry="6.95279" transform="translate(124.197425 75.948498)" fill="#434248" stroke-width="0"/><ellipse rx="6.695279" ry="6.95279" transform="translate(124.197425 92.948498)" fill="#434248" stroke-width="0"/><ellipse rx="6.695279" ry="6.95279" transform="translate(124.197425 109.948498)" fill="#434248" stroke-width="0"/><ellipse rx="6.695279" ry="6.95279" transform="translate(124.197425 127.948498)" fill="#434248" stroke-width="0"/><ellipse rx="6.695279" ry="6.95279" transform="translate(124.197425 145.948498)" fill="#434248" stroke-width="0"/><ellipse rx="6.695279" ry="6.95279" transform="translate(124.197425 162.948498)" fill="#434248" stroke-width="0"/><ellipse rx="6.695279" ry="6.95279" transform="translate(124.197425 180.948498)" fill="#434248" stroke-width="0"/><ellipse rx="6.695279" ry="6.95279" transform="translate(124.197425 198.948498)" fill="#434248" stroke-width="0"/><ellipse rx="6.695279" ry="6.95279" transform="translate(124.197425 217.948498)" fill="#434248" stroke-width="0"/><ellipse rx="6.695279" ry="6.95279" transform="translate(143.197425 28.948498)" fill="#434248" stroke-width="0"/><ellipse rx="6.695279" ry="6.95279" transform="translate(143.197425 241.948498)" fill="#434248" stroke-width="0"/><ellipse rx="6.695279" ry="6.95279" transform="translate(143.197425 223.948498)" fill="#434248" stroke-width="0"/><ellipse rx="6.695279" ry="6.95279" transform="translate(143.197425 259.948498)" fill="#434248" stroke-width="0"/><ellipse rx="6.695279" ry="6.95279" transform="translate(143.197425 276.948498)" fill="#434248" stroke-width="0"/><ellipse rx="6.695279" ry="6.95279" transform="translate(143.197425 10.948498)" fill="#434248" stroke-width="0"/><ellipse rx="6.695279" ry="6.95279" transform="translate(143.197425 46.948498)" fill="#434248" stroke-width="0"/><ellipse rx="6.695279" ry="6.95279" transform="translate(143.197425 63.948498)" fill="#434248" stroke-width="0"/><ellipse rx="6.695279" ry="6.95279" transform="translate(143.197425 80.948498)" fill="#434248" stroke-width="0"/><ellipse rx="6.695279" ry="6.95279" transform="translate(143.197425 97.948498)" fill="#434248" stroke-width="0"/><ellipse rx="6.695279" ry="6.95279" transform="translate(143.197425 115.948498)" fill="#434248" stroke-width="0"/><ellipse rx="6.695279" ry="6.95279" transform="translate(143.197425 133.948498)" fill="#434248" stroke-width="0"/><ellipse rx="6.695279" ry="6.95279" transform="translate(143.197425 150.948498)" fill="#434248" stroke-width="0"/><ellipse rx="6.695279" ry="6.95279" transform="translate(143.197425 168.948498)" fill="#434248" stroke-width="0"/><ellipse rx="6.695279" ry="6.95279" transform="translate(143.197425 186.948498)" fill="#434248" stroke-width="0"/><ellipse rx="6.695279" ry="6.95279" transform="translate(143.197425 205.948498)" fill="#434248" stroke-width="0"/><ellipse rx="6.695279" ry="6.95279" transform="translate(87.197425 40.948498)" fill="#434248" stroke-width="0"/><ellipse rx="6.695279" ry="6.95279" transform="translate(87.197425 253.948498)" fill="#434248" stroke-width="0"/><ellipse rx="6.695279" ry="6.95279" transform="translate(87.197425 235.948498)" fill="#434248" stroke-width="0"/><ellipse rx="6.695279" ry="6.95279" transform="translate(87.197425 271.948498)" fill="#434248" stroke-width="0"/><ellipse rx="6.695279" ry="6.95279" transform="translate(87.197425 288.948498)" fill="#434248" stroke-width="0"/><ellipse rx="6.695279" ry="6.95279" transform="translate(87.197425 22.948498)" fill="#434248" stroke-width="0"/><ellipse rx="6.695279" ry="6.95279" transform="translate(87.197425 58.948498)" fill="#434248" stroke-width="0"/><ellipse rx="6.695279" ry="6.95279" transform="translate(87.197425 75.948498)" fill="#434248" stroke-width="0"/><ellipse rx="6.695279" ry="6.95279" transform="translate(87.197425 92.948498)" fill="#434248" stroke-width="0"/><ellipse rx="6.695279" ry="6.95279" transform="translate(87.197425 109.948498)" fill="#434248" stroke-width="0"/><ellipse rx="6.695279" ry="6.95279" transform="translate(87.197425 127.948498)" fill="#434248" stroke-width="0"/><ellipse rx="6.695279" ry="6.95279" transform="translate(87.197425 145.948498)" fill="#434248" stroke-width="0"/><ellipse rx="6.695279" ry="6.95279" transform="translate(87.197425 162.948498)" fill="#434248" stroke-width="0"/><ellipse rx="6.695279" ry="6.95279" transform="translate(87.197425 180.948498)" fill="#434248" stroke-width="0"/><ellipse rx="6.695279" ry="6.95279" transform="translate(87.197425 198.948498)" fill="#434248" stroke-width="0"/><ellipse rx="6.695279" ry="6.95279" transform="translate(87.197425 217.948498)" fill="#434248" stroke-width="0"/><ellipse rx="6.695279" ry="6.95279" transform="translate(106.197425 28.948498)" fill="#434248" stroke-width="0"/><ellipse rx="6.695279" ry="6.95279" transform="translate(106.197425 241.948498)" fill="#434248" stroke-width="0"/><ellipse rx="6.695279" ry="6.95279" transform="translate(106.197425 223.948498)" fill="#434248" stroke-width="0"/><ellipse rx="6.695279" ry="6.95279" transform="translate(106.197425 259.948498)" fill="#434248" stroke-width="0"/><ellipse rx="6.695279" ry="6.95279" transform="translate(106.197425 276.948498)" fill="#434248" stroke-width="0"/><ellipse rx="6.695279" ry="6.95279" transform="translate(106.197425 10.948498)" fill="#434248" stroke-width="0"/><ellipse rx="6.695279" ry="6.95279" transform="translate(106.197425 46.948498)" fill="#434248" stroke-width="0"/><ellipse rx="6.695279" ry="6.95279" transform="translate(106.197425 63.948498)" fill="#434248" stroke-width="0"/><ellipse rx="6.695279" ry="6.95279" transform="translate(106.197425 80.948498)" fill="#434248" stroke-width="0"/><ellipse rx="6.695279" ry="6.95279" transform="translate(106.197425 97.948498)" fill="#434248" stroke-width="0"/><ellipse rx="6.695279" ry="6.95279" transform="translate(106.197425 115.948498)" fill="#434248" stroke-width="0"/><ellipse rx="6.695279" ry="6.95279" transform="translate(106.197425 133.948498)" fill="#434248" stroke-width="0"/><ellipse rx="6.695279" ry="6.95279" transform="translate(106.197425 150.948498)" fill="#434248" stroke-width="0"/><ellipse rx="6.695279" ry="6.95279" transform="translate(106.197425 168.948498)" fill="#434248" stroke-width="0"/><ellipse rx="6.695279" ry="6.95279" transform="translate(106.197425 186.948498)" fill="#434248" stroke-width="0"/><ellipse rx="6.695279" ry="6.95279" transform="translate(106.197425 205.948498)" fill="#434248" stroke-width="0"/><ellipse rx="6.695279" ry="6.95279" transform="translate(48.197425 253.948498)" fill="#434248" stroke-width="0"/><ellipse rx="6.695279" ry="6.95279" transform="translate(48.197425 235.948498)" fill="#434248" stroke-width="0"/><ellipse rx="6.695279" ry="6.95279" transform="translate(48.197425 271.948498)" fill="#434248" stroke-width="0"/><ellipse rx="6.695279" ry="6.95279" transform="translate(48.197425 288.948498)" fill="#434248" stroke-width="0"/><ellipse rx="6.695279" ry="6.95279" transform="translate(48.197425 22.948498)" fill="#434248" stroke-width="0"/><ellipse rx="6.695279" ry="6.95279" transform="translate(48.197425 58.948498)" fill="#434248" stroke-width="0"/><ellipse rx="6.695279" ry="6.95279" transform="translate(48.197425 75.948498)" fill="#434248" stroke-width="0"/><ellipse rx="6.695279" ry="6.95279" transform="translate(48.197425 92.948498)" fill="#434248" stroke-width="0"/><ellipse rx="6.695279" ry="6.95279" transform="translate(48.197425 109.948498)" fill="#434248" stroke-width="0"/><ellipse rx="6.695279" ry="6.95279" transform="translate(48.197425 127.948498)" fill="#434248" stroke-width="0"/><ellipse rx="6.695279" ry="6.95279" transform="translate(48.197425 145.948498)" fill="#434248" stroke-width="0"/><ellipse rx="6.695279" ry="6.95279" transform="translate(48.197425 162.948498)" fill="#434248" stroke-width="0"/><ellipse rx="6.695279" ry="6.95279" transform="translate(48.197425 180.948498)" fill="#434248" stroke-width="0"/><ellipse rx="6.695279" ry="6.95279" transform="translate(48.197425 198.948498)" fill="#434248" stroke-width="0"/><ellipse rx="6.695279" ry="6.95279" transform="translate(48.197425 217.948498)" fill="#434248" stroke-width="0"/><ellipse rx="6.695279" ry="6.95279" transform="translate(67.197425 28.948498)" fill="#434248" stroke-width="0"/><ellipse rx="6.695279" ry="6.95279" transform="translate(67.197425 241.948498)" fill="#434248" stroke-width="0"/><ellipse rx="6.695279" ry="6.95279" transform="translate(67.197425 223.948498)" fill="#434248" stroke-width="0"/><ellipse rx="6.695279" ry="6.95279" transform="translate(67.197425 259.948498)" fill="#434248" stroke-width="0"/><ellipse rx="6.695279" ry="6.95279" transform="translate(67.197425 276.948498)" fill="#434248" stroke-width="0"/><ellipse rx="6.695279" ry="6.95279" transform="translate(67.197425 10.948498)" fill="#434248" stroke-width="0"/><ellipse rx="6.695279" ry="6.95279" transform="translate(67.197425 46.948498)" fill="#434248" stroke-width="0"/><ellipse rx="6.695279" ry="6.95279" transform="translate(67.197425 63.948498)" fill="#434248" stroke-width="0"/><ellipse rx="6.695279" ry="6.95279" transform="translate(67.197425 80.948498)" fill="#434248" stroke-width="0"/><ellipse rx="6.695279" ry="6.95279" transform="translate(67.197425 97.948498)" fill="#434248" stroke-width="0"/><ellipse rx="6.695279" ry="6.95279" transform="translate(67.197425 115.948498)" fill="#434248" stroke-width="0"/><ellipse rx="6.695279" ry="6.95279" transform="translate(67.197425 133.948498)" fill="#434248" stroke-width="0"/><ellipse rx="6.695279" ry="6.95279" transform="translate(67.197425 150.948498)" fill="#434248" stroke-width="0"/><ellipse rx="6.695279" ry="6.95279" transform="translate(67.197425 168.948498)" fill="#434248" stroke-width="0"/><ellipse rx="6.695279" ry="6.95279" transform="translate(67.197425 186.948498)" fill="#434248" stroke-width="0"/><ellipse rx="6.695279" ry="6.95279" transform="translate(67.197425 205.948498)" fill="#434248" stroke-width="0"/></svg>
